<svg xmlns="http://www.w3.org/2000/svg" width="20" height="21" fill="none" viewBox="0 0 20 21">
  <path fill="#967FF2" fill-rule="evenodd" d="M1.85 10.5a8.15 8.15 0 0 1 10.697-7.744.85.85 0 1 0 .53-1.615A9.841 9.841 0 0 0 10 .65C4.56.65.15 5.06.15 10.5c0 5.44 4.41 9.85 9.85 9.85 5.44 0 9.85-4.41 9.85-9.85a.85.85 0 0 0-1.7 0 8.15 8.15 0 0 1-16.3 0Zm15.752-4.4a.85.85 0 1 0-1.204-1.2l-6.348 6.376-2.43-2.598a.85.85 0 1 0-1.24 1.161l3.03 3.242a.85.85 0 0 0 1.223.019l6.97-7Z" clip-rule="evenodd"/>
</svg>
