<?xml version="1.0" encoding="UTF-8"?>
<svg width="24px" height="24px" viewBox="0 0 24 24" version="1.1" xmlns="http://www.w3.org/2000/svg">
    <g stroke="none" stroke-width="1" fill="none" fill-rule="evenodd">
        <path d="M12,2 C17.52,2 22,6.48 22,12 C22,17.52 17.52,22 12,22 C6.48,22 2,17.52 2,12 C2,6.48 6.48,2 12,2 Z M12,4 C7.58,4 4,7.58 4,12 C4,16.42 7.58,20 12,20 C16.42,20 20,16.42 20,12 C20,7.58 16.42,4 12,4 Z M13,6 L13,11 L17,11 L17,13 L11,13 L11,6 L13,6 Z" fill="#000000" fill-rule="nonzero"></path>
    </g>
</svg>
