<?xml version="1.0" encoding="UTF-8"?>
<svg width="16" height="16" viewBox="0 0 16 16" fill="none" xmlns="http://www.w3.org/2000/svg">
    <path d="M8.74733 7.25267C8.19506 6.7004 7.44296 6.39211 6.66667 6.39211C5.89037 6.39211 5.13827 6.7004 4.586 7.25267L2.25267 9.586C1.7004 10.1383 1.39211 10.8904 1.39211 11.6667C1.39211 12.443 1.7004 13.1951 2.25267 13.7473C2.80493 14.2996 3.55703 14.6079 4.33333 14.6079C5.10963 14.6079 5.86173 14.2996 6.414 13.7473L7.586 12.5753" stroke="#1a73e8" stroke-width="1.5" stroke-linecap="round" stroke-linejoin="round"/>
    <path d="M7.25267 8.74733C7.80493 9.2996 8.55703 9.60789 9.33333 9.60789C10.1096 9.60789 10.8617 9.2996 11.414 8.74733L13.7473 6.414C14.2996 5.86173 14.6079 5.10963 14.6079 4.33333C14.6079 3.55703 14.2996 2.80493 13.7473 2.25267C13.1951 1.7004 12.443 1.39211 11.6667 1.39211C10.8904 1.39211 10.1383 1.7004 9.586 2.25267L8.414 3.42467" stroke="#1a73e8" stroke-width="1.5" stroke-linecap="round" stroke-linejoin="round"/>
</svg>
