<svg width="16" height="16" xmlns="http://www.w3.org/2000/svg">

 <g>
  <title>background</title>
  <rect fill="none" id="canvas_background" height="402" width="582" y="-1" x="-1"/>
 </g>
 <g>
  <title>Layer 1</title>
  <g id="svg_1" fill-rule="evenodd" fill="none">
   <path id="svg_2" fill="#7c7c7c" d="m0,1.777c0,-0.981 0.796,-1.777 1.777,-1.777l12.446,0c0.981,0 1.777,0.796 1.777,1.777l0,12.446c0,0.981 -0.796,1.777 -1.777,1.777l-12.446,0a1.778,1.778 0 0 1 -1.777,-1.777l0,-12.446z"/>
   <path id="svg_3" fill-rule="nonzero" fill="#FFF" d="m7.267,6.966l-1.373,5.525c-0.232,0.936 -1.525,1.033 -1.894,0.142l-2.174,-5.25a1,1 0 0 1 1.848,-0.766l1.012,2.444l1.441,-5.801c0.24,-0.962 1.582,-1.028 1.913,-0.093l1.436,4.043l0.88,-1.573a1,1 0 0 1 1.693,-0.083l1.522,2.187a1,1 0 0 1 -1.642,1.143l-0.608,-0.875l-1.176,2.104c-0.42,0.75 -1.528,0.657 -1.816,-0.154l-1.062,-2.993z"/>
  </g>
 </g>
</svg>