<?xml version="1.0" encoding="iso-8859-1"?>
<!-- Uploaded to: SVG Repo, www.svgrepo.com, Generator: SVG Repo Mixer Tools -->
<svg height="800px" width="800px" version="1.1" id="Layer_1" xmlns="http://www.w3.org/2000/svg" xmlns:xlink="http://www.w3.org/1999/xlink" 
	 viewBox="0 0 512 512" xml:space="preserve">
<path style="fill:#B6E152;" d="M512,256c0,141.384-114.616,256-256,256S0,397.384,0,256S114.616,0,256,0S512,114.616,512,256z"/>
<path style="fill:#73A4BC;" d="M0,256h512c0,141.384-114.615,256-256,256S0,397.384,0,256z"/>
<path style="fill:#FFBC00;" d="M0,256C0,114.616,114.615,0,256,0v512C114.615,512,0,397.385,0,256z"/>
<path style="fill:#FF6029;" d="M256,512C114.615,512,0,397.385,0,256h256V512z"/>
<path style="fill:#92B703;" d="M384,256c0,70.693-57.307,128-128,128s-128-57.307-128-128s57.307-128,128-128S384,185.307,384,256z"
	/>
<path style="fill:#56889B;" d="M128,256h256c0,70.693-57.307,128-128,128S128,326.693,128,256z"/>
<path style="fill:#E0A000;" d="M128,256c0-70.693,57.307-128,128-128v253.774C185.307,381.774,128,326.693,128,256z"/>
<path style="fill:#B7441C;" d="M256,384c-70.693,0-128-57.307-128-128h128V384z"/>
<path style="fill:#EDEDED;" d="M345.043,256c0,49.178-39.866,89.043-89.043,89.043S166.957,305.178,166.957,256
	s39.866-89.043,89.043-89.043S345.043,206.822,345.043,256z"/>
</svg>