<?xml version="1.0" encoding="iso-8859-1"?>
<!-- Uploaded to: SVG Repo, www.svgrepo.com, Generator: SVG Repo Mixer Tools -->
<svg height="800px" width="800px" version="1.1" id="Layer_1" xmlns="http://www.w3.org/2000/svg" xmlns:xlink="http://www.w3.org/1999/xlink" 
	 viewBox="0 0 512.008 512.008" xml:space="preserve">
<path style="fill:#E21B1B;" d="M235.024,41.956C105.224,41.956,0,147.18,0,276.98s105.224,235.024,235.024,235.024
	c129.744,0,234.928-105.128,235.016-234.848H235.024V41.956z"/>
<path style="fill:#939393;" d="M443.256,68.924L276.984,235.196H512c0-0.056,0.008-0.112,0.008-0.168
	C512.008,170.172,485.736,111.452,443.256,68.924z"/>
<path style="fill:#FFFFFF;" d="M288.984,12.316c51.12,2.696,99.04,22.552,137.08,56.832l-137.08,137.08V12.316z"/>
<path style="fill:#E21B1B;" d="M300.984,25.34c39.416,4.432,76.4,19.76,107.392,44.52L300.984,177.252V25.34 M276.984,0.004v235.192
	L443.256,68.924C400.712,26.348,341.928,0.004,276.984,0.004L276.984,0.004z"/>
</svg>